<?xml version="1.0" encoding="UTF-8"?>
<svg width="691.92pt" height="397.92pt" content="%3Cmxfile%20host%3D%22app.diagrams.net%22%20modified%3D%222023-02-25T18%3A53%3A26.709Z%22%20agent%3D%225.0%20(Macintosh%3B%20Intel%20Mac%20OS%20X%2010_15_7)%20AppleWebKit%2F605.1.15%20(KHTML%2C%20like%20Gecko)%20Version%2F15.3%20Safari%2F605.1.15%22%20etag%3D%22Ti7Ovh62AdqKwW-lUPlI%22%20version%3D%2220.8.23%22%20type%3D%22device%22%3E%3Cdiagram%20name%3D%22Page-1%22%20id%3D%22zT5qu73x5XVw3ks7xpXo%22%3E3Vpbc6M2FP41fiSDuNqPjpNuM93teruzbbZvAmTQRiBGCF%2F66yuBuBPHXV%2BY5iUjfUhCnO985xzJmZmreP%2BBwTT6RANEZoYe7Gfmw8wwFrYl%2FkrgUAK26ZZAyHBQQqABvuJ%2FkAJ1heY4QFlnIKeUcJx2QZ8mCfJ5B4OM0V132IaS7ltTGKo36g3w1YcEDYb9hQMelejccBv8V4TDqHozcBblkxhWg9XCWQQDumtB5uPMXDFKedmK9ytEpO0qu5Tzfnnlab0xhhJ%2BygRjzYPky9OH3d%2F4C5gnz8%2BrH1sNqN1m%2FFB9MQqEAVSXMh7RkCaQPDboPaN5EiC5rC56zZiPlKYCBAL8gTg%2FKDZhzqmAIh4T9VTsmB2e5fw7YJgV8L0AHN2tgIe9ekXZO7R7a8RwjDhiCiw%2FQ%2B79VfMoKKM589Exm5jKzyALET8y0KhZFN6PqNgOO4h5DBHI8ba7Eaj8MKzHNVSJhmLrPzBXu9VUzC0WRpc5y%2FjfMOeeyVwxdckYPLQGpBQnPGutvJaAGKBi4dxUlKlQCEyr5wXlio1P1Fv7eTepTLKFJFffNfQbQkQ4lf6xizBHX1NYWHknAnqXfZilZYzd4L30ovsNJmRFCZVcJjRBNZ1bxDjaHyd0aH81wQVdQxm66u%2BaCGw4Cota0bcGL682Z1K1gbbSwBsqu6CgjBP1ZE6hJwB6grL7GbA3wVmcN9507OsL1hjodQmDCDKx2Lenh%2BWTZFK4EiRHZCxKjVSCPqF58LasLyBZoPc0C%2BwRzRojmq1JvLhmgTWJZveYP7faZW60Va%2BRrOx08uJzu9OadRuln5o5wblSPy8MgykpbWj83mbxOKWgS6ljm2%2BQeu0i6VY10llED6uWTxAnAvlTGGaDhV36fsAiGnt5dpNoVyWOukBxhsEOjBUowLpWsLOnEMYFvdK6UaVxlpGtgVd%2By0ZcsUq%2FeUyWPpfF8b10N%2BwL00IPkTXNMMc0EUM8yjmNWwOWBIfyAac9t6U5JzhBq%2FqeQ7%2BML5uu3fFlyx36sjniytcrtc1JYnxzsLU7EXviaO2eqAtrSl24A13MDIeI7d57Qh1OyAub9JFlmjK6FaQZ%2Bu80QFoV2rNTJmuiAWOpETVAX%2Bcewb72GzpoMlc0ieKNqc08sQjdSFJyT0vEjsBw7t2p0CshwYfsNgW52UtRYxnKGstQV9P1YuAkQNcCHGJ54lpH8vbA0JM89iRnq%2BrQ0yBDM8MQaR5MguKhHiIRAeTAjEMu10KJzw4pLxxsh8VXC%2FsVXIvGS8N2%2FEZhITjgXXoyzugL6t17jFyFQBXLfcEZameBKsjHOAjIa%2Fcu3ZB2AZew7K5LWHN74BPjRzT9akc0Z%2BAUlfgybVjr1yrKvRNuq7zSgB%2B9GoD%2BS1iY9XOZTBUeQPbyWSyDeRHV73S7CxoFCq523zXXe%2BXkyNnZHeHFvhotw4Be0VLdT7x%2FVlzb7bBSR9TJWJm%2FzsqwZnqnrMx7QWxyVozhhd2KxjHm2h9oi%2BQ1nZ75EYpRlW%2B2RaLxYXECEJVdJKwcyuTk0yRDSZZn7zcF2b0b28VIVTIfYe9qd4TG8Ei3Qdzv1wqCEn3DxEHN0D1C%2FRc%2FKoqG90qT2bvMNa0hT4ubngmHxeMGs4xrfiG1SloRzKKqfbw4rOvL90qh1fvtAowc68co%2FIk4KbrNfzGUP4M0%2FwpiPv4L%3C%2Fdiagram%3E%3C%2Fmxfile%3E" version="1.1" viewBox="0 0 691.92 397.92" xmlns="http://www.w3.org/2000/svg" xmlns:xlink="http://www.w3.org/1999/xlink">
<defs>
<g id="v">
<path d="m-0.015625 0 2.4844-6.4375h0.90625l2.6406 6.4375h-0.96875l-0.75-1.9531h-2.7031l-0.70312 1.9531zm1.8594-2.6406h2.1875l-0.67188-1.7969c-0.21094-0.53906-0.35938-0.98438-0.45312-1.3281-0.085937 0.41797-0.20312 0.82812-0.35938 1.2344z"/>
</g>
<g id="d">
<path d="m3.6406-0.57812c-0.29297 0.25-0.57422 0.42969-0.84375 0.53125-0.27344 0.10156-0.5625 0.15625-0.875 0.15625-0.51172 0-0.90625-0.125-1.1875-0.375-0.27344-0.25-0.40625-0.57031-0.40625-0.96875 0-0.22656 0.050781-0.4375 0.15625-0.625 0.10156-0.1875 0.23828-0.33594 0.40625-0.45312 0.16406-0.11328 0.35156-0.20312 0.5625-0.26562 0.15625-0.03125 0.39062-0.066406 0.70312-0.10938 0.64453-0.070313 1.1172-0.16406 1.4219-0.28125v-0.20312c0-0.32031-0.074219-0.54688-0.21875-0.67188-0.21094-0.1875-0.51172-0.28125-0.90625-0.28125-0.375 0-0.65234 0.070312-0.82812 0.20312-0.17969 0.125-0.30859 0.35547-0.39062 0.6875l-0.76562-0.09375c0.0625-0.33203 0.17188-0.59766 0.32812-0.79688 0.16406-0.20703 0.39844-0.36328 0.70312-0.46875 0.3125-0.11328 0.66406-0.17188 1.0625-0.17188 0.40625 0 0.72656 0.046875 0.96875 0.14062 0.25 0.09375 0.42969 0.21484 0.54688 0.35938 0.125 0.13672 0.20703 0.3125 0.25 0.53125 0.03125 0.13672 0.046875 0.375 0.046875 0.71875v1.0625c0 0.73047 0.015625 1.1953 0.046875 1.3906 0.03125 0.19922 0.097656 0.38672 0.20312 0.5625h-0.82812c-0.085937-0.16406-0.13672-0.35938-0.15625-0.57812zm-0.0625-1.7656c-0.29297 0.11719-0.72656 0.21484-1.2969 0.29688-0.32422 0.054687-0.55469 0.10938-0.6875 0.17188-0.13672 0.054687-0.24219 0.13672-0.3125 0.25-0.074219 0.11719-0.10938 0.24219-0.10938 0.375 0 0.21094 0.078125 0.38672 0.23438 0.53125 0.15625 0.13672 0.39062 0.20312 0.70312 0.20312 0.30078 0 0.57031-0.066406 0.8125-0.20312 0.23828-0.13281 0.41406-0.31641 0.53125-0.54688 0.082031-0.17578 0.125-0.4375 0.125-0.78125z"/>
</g>
<g id="i">
<path d="m3.625 0v-0.59375c-0.30469 0.46875-0.74219 0.70312-1.3125 0.70312-0.36719 0-0.70312-0.10547-1.0156-0.3125-0.3125-0.20703-0.55859-0.49219-0.73438-0.85938-0.16797-0.36328-0.25-0.78516-0.25-1.2656 0-0.46875 0.078125-0.89062 0.23438-1.2656 0.15625-0.38281 0.38281-0.67578 0.6875-0.875 0.3125-0.19531 0.66016-0.29688 1.0469-0.29688 0.28125 0 0.53125 0.058594 0.75 0.17188 0.21875 0.11719 0.39453 0.27344 0.53125 0.46875v-2.3125h0.79688v6.4375zm-2.5-2.3281c0 0.59375 0.125 1.043 0.375 1.3438 0.25 0.29297 0.54688 0.4375 0.89062 0.4375s0.63281-0.14062 0.875-0.42188c0.25-0.28125 0.375-0.71094 0.375-1.2969 0-0.63281-0.125-1.1016-0.375-1.4062-0.25-0.30078-0.55469-0.45312-0.90625-0.45312-0.35547 0-0.65234 0.14844-0.89062 0.4375-0.23047 0.29297-0.34375 0.74609-0.34375 1.3594z"/>
</g>
<g id="m">
<path d="m0.59375 0v-6.4375h0.79688v2.3125c0.36328-0.42578 0.82812-0.64062 1.3906-0.64062 0.34375 0 0.64062 0.070312 0.89062 0.20312 0.25781 0.13672 0.44141 0.32422 0.54688 0.5625 0.11328 0.24219 0.17188 0.58984 0.17188 1.0469v2.9531h-0.78125v-2.9531c0-0.39453-0.089844-0.67969-0.26562-0.85938-0.16797-0.1875-0.40625-0.28125-0.71875-0.28125-0.24219 0-0.46484 0.0625-0.67188 0.1875-0.21094 0.11719-0.35547 0.27734-0.4375 0.48438-0.085937 0.21094-0.125 0.5-0.125 0.875v2.5469z"/>
</g>
<g id="c">
<path d="m0.57812 0v-4.6719h0.71875v0.71875c0.17578-0.33203 0.34375-0.55078 0.5-0.65625 0.15625-0.10156 0.32812-0.15625 0.51562-0.15625 0.25781 0 0.53125 0.085937 0.8125 0.25l-0.28125 0.73438c-0.1875-0.11328-0.38281-0.17188-0.57812-0.17188-0.16797 0-0.32422 0.054687-0.46875 0.15625-0.13672 0.10547-0.23438 0.25-0.29688 0.4375-0.085937 0.28125-0.125 0.58984-0.125 0.92188v2.4375z"/>
</g>
<g id="ai">
<path d="m0 0.10938 1.875-6.6562h0.625l-1.8594 6.6562z"/>
</g>
<g id="ad">
<path d="m4.9219-6.4375h0.85938v3.7188c0 0.64844-0.078125 1.1641-0.23438 1.5469-0.14844 0.375-0.41406 0.68359-0.79688 0.92188-0.375 0.24219-0.875 0.35938-1.5 0.35938-0.60547 0-1.1016-0.10547-1.4844-0.3125-0.375-0.20703-0.64844-0.50781-0.8125-0.90625-0.16797-0.39453-0.25-0.92969-0.25-1.6094v-3.7188h0.85938v3.7188c0 0.55469 0.050781 0.96484 0.15625 1.2344 0.10156 0.26172 0.28125 0.46484 0.53125 0.60938 0.25 0.14844 0.5625 0.21875 0.9375 0.21875 0.625 0 1.0664-0.14062 1.3281-0.42188 0.26953-0.28906 0.40625-0.83594 0.40625-1.6406z"/>
</g>
<g id="ac">
<path d="m0.84375 0v-6.4375h0.84375v6.4375z"/>
</g>
<g id="ah">
<path d="m0.6875 0v-6.4375h2.2188c0.50781 0 0.89453 0.03125 1.1562 0.09375 0.36328 0.085937 0.67578 0.23438 0.9375 0.45312 0.34375 0.29297 0.59766 0.66406 0.76562 1.1094 0.16406 0.4375 0.25 0.94922 0.25 1.5312 0 0.49219-0.058594 0.92188-0.17188 1.2969-0.11719 0.375-0.26172 0.6875-0.4375 0.9375-0.17969 0.25-0.375 0.44922-0.59375 0.59375-0.21094 0.13672-0.46484 0.24219-0.76562 0.3125-0.29297 0.074219-0.63672 0.10938-1.0312 0.10938zm0.85938-0.76562h1.375c0.42578 0 0.75781-0.035156 1-0.10938 0.23828-0.082031 0.42969-0.19531 0.57812-0.34375 0.19531-0.19531 0.35156-0.46875 0.46875-0.8125 0.11328-0.34375 0.17188-0.75391 0.17188-1.2344 0-0.67578-0.10938-1.1914-0.32812-1.5469-0.21875-0.36328-0.49219-0.60938-0.8125-0.73438-0.23047-0.09375-0.59375-0.14062-1.0938-0.14062h-1.3594z"/>
</g>
<g id="t">
<path d="m0.59375 1.7812v-6.4531h0.71875v0.60938c0.16406-0.23828 0.35156-0.41406 0.5625-0.53125 0.21875-0.11328 0.48438-0.17188 0.79688-0.17188 0.39453 0 0.74219 0.10547 1.0469 0.3125 0.30078 0.19922 0.53125 0.48438 0.6875 0.85938s0.23438 0.78125 0.23438 1.2188c0 0.48047-0.089844 0.91406-0.26562 1.2969-0.16797 0.38672-0.41406 0.68359-0.73438 0.89062-0.32422 0.19531-0.66797 0.29688-1.0312 0.29688-0.26172 0-0.49609-0.058594-0.70312-0.17188-0.21094-0.11328-0.38281-0.25391-0.51562-0.42188v2.2656zm0.71875-4.0938c0 0.60547 0.11719 1.0547 0.35938 1.3438 0.25 0.28125 0.54688 0.42188 0.89062 0.42188s0.64062-0.14453 0.89062-0.4375c0.25781-0.30078 0.39062-0.76562 0.39062-1.3906 0-0.59375-0.125-1.0352-0.375-1.3281-0.24219-0.30078-0.53125-0.45312-0.875-0.45312-0.33594 0-0.63281 0.16406-0.89062 0.48438-0.26172 0.3125-0.39062 0.76562-0.39062 1.3594z"/>
</g>
<g id="e">
<path d="m0.29688-2.3281c0-0.86328 0.23828-1.5039 0.71875-1.9219 0.40625-0.34375 0.89453-0.51562 1.4688-0.51562 0.64453 0 1.1719 0.21094 1.5781 0.625 0.40625 0.41797 0.60938 0.99609 0.60938 1.7344 0 0.60547-0.09375 1.0781-0.28125 1.4219-0.17969 0.34375-0.4375 0.61719-0.78125 0.8125-0.34375 0.1875-0.71875 0.28125-1.125 0.28125-0.65625 0-1.1875-0.20703-1.5938-0.625-0.39844-0.42578-0.59375-1.0312-0.59375-1.8125zm0.8125 0c0 0.59375 0.12891 1.043 0.39062 1.3438 0.25781 0.29297 0.58594 0.4375 0.98438 0.4375 0.39453 0 0.72266-0.14453 0.98438-0.4375 0.25781-0.30078 0.39062-0.75781 0.39062-1.375 0-0.57031-0.13281-1.0078-0.39062-1.3125-0.26172-0.30078-0.58984-0.45312-0.98438-0.45312-0.39844 0-0.72656 0.15234-0.98438 0.45312-0.26172 0.29297-0.39062 0.74219-0.39062 1.3438z"/>
</g>
<g id="j">
<path d="m2.3281-0.70312 0.10938 0.6875c-0.23047 0.050781-0.42969 0.078125-0.59375 0.078125-0.29297 0-0.51562-0.046875-0.67188-0.14062s-0.27344-0.21094-0.34375-0.35938c-0.0625-0.14453-0.09375-0.45312-0.09375-0.92188v-2.6875h-0.57812v-0.625h0.57812v-1.1562l0.79688-0.46875v1.625h0.79688v0.625h-0.79688v2.7188c0 0.23047 0.007813 0.375 0.03125 0.4375 0.03125 0.0625 0.078125 0.11719 0.14062 0.15625 0.0625 0.042969 0.14844 0.0625 0.26562 0.0625 0.09375 0 0.21094-0.007813 0.35938-0.03125z"/>
</g>
<g id="r">
<path d="m0.57812 0v-6.4375h0.78125v6.4375z"/>
</g>
<g id="ag">
<path d="m0.67188 0v-6.4375h1.2812l1.5156 4.5625c0.14453 0.41797 0.25 0.73438 0.3125 0.95312 0.070313-0.23828 0.1875-0.58203 0.34375-1.0312l1.5469-4.4844h1.1406v6.4375h-0.8125v-5.3906l-1.875 5.3906h-0.76562l-1.875-5.4844v5.4844z"/>
</g>
<g id="b">
<path d="m0.59375-5.5312v-0.90625h0.79688v0.90625zm0 5.5312v-4.6719h0.79688v4.6719z"/>
</g>
<g id="f">
<path d="m0.59375 0v-4.6719h0.71875v0.67188c0.33203-0.50781 0.82812-0.76562 1.4844-0.76562 0.28125 0 0.53516 0.054687 0.76562 0.15625 0.23828 0.09375 0.41406 0.22656 0.53125 0.39062 0.11328 0.15625 0.19531 0.35156 0.25 0.57812 0.03125 0.14844 0.046875 0.40234 0.046875 0.76562v2.875h-0.79688v-2.8438c0-0.32031-0.03125-0.5625-0.09375-0.71875s-0.17188-0.28125-0.32812-0.375c-0.15625-0.10156-0.33984-0.15625-0.54688-0.15625-0.33594 0-0.625 0.10938-0.875 0.32812-0.24219 0.21094-0.35938 0.61719-0.35938 1.2188v2.5469z"/>
</g>
<g id="w">
<path d="m2.5312 0-2.4844-6.4375h0.92188l1.6719 4.6719c0.13281 0.375 0.24219 0.73047 0.32812 1.0625 0.10156-0.35156 0.22266-0.70703 0.35938-1.0625l1.7344-4.6719h0.875l-2.5312 6.4375z"/>
</g>
<g id="a">
<path d="m3.7812-1.5 0.82812 0.09375c-0.13672 0.48047-0.38281 0.85547-0.73438 1.125-0.34375 0.26172-0.78906 0.39062-1.3281 0.39062-0.67969 0-1.2188-0.20703-1.625-0.625-0.39844-0.42578-0.59375-1.0195-0.59375-1.7812 0-0.78125 0.20312-1.3828 0.60938-1.8125 0.40625-0.4375 0.92969-0.65625 1.5781-0.65625 0.625 0 1.1289 0.21484 1.5156 0.64062 0.39453 0.41797 0.59375 1.0117 0.59375 1.7812v0.21875h-3.4844c0.03125 0.51172 0.17578 0.90234 0.4375 1.1719 0.25781 0.27344 0.58594 0.40625 0.98438 0.40625 0.28906 0 0.53516-0.070313 0.73438-0.21875 0.20703-0.15625 0.36719-0.39844 0.48438-0.73438zm-2.5938-1.2812h2.6094c-0.03125-0.39453-0.13281-0.69141-0.29688-0.89062-0.25-0.30078-0.57812-0.45312-0.98438-0.45312-0.36719 0-0.67188 0.125-0.92188 0.375-0.24219 0.24219-0.375 0.5625-0.40625 0.96875z"/>
</g>
<g id="l">
<path d="m0.78125 0v-4.0469h-0.70312v-0.625h0.70312v-0.48438c0-0.32031 0.023438-0.55469 0.078125-0.70312 0.082031-0.20703 0.21875-0.375 0.40625-0.5 0.19531-0.125 0.46875-0.1875 0.8125-0.1875 0.21875 0 0.46094 0.027344 0.73438 0.078125l-0.125 0.6875c-0.15625-0.03125-0.30859-0.046875-0.45312-0.046875-0.24219 0-0.41406 0.054687-0.51562 0.15625-0.10547 0.10547-0.15625 0.29688-0.15625 0.57812v0.42188h0.92188v0.625h-0.92188v4.0469z"/>
</g>
<g id="h">
<path d="m0.28125-1.3906 0.78125-0.125c0.039063 0.3125 0.16016 0.55469 0.35938 0.71875 0.20703 0.16797 0.48828 0.25 0.84375 0.25 0.36328 0 0.63281-0.070313 0.8125-0.21875 0.17578-0.14453 0.26562-0.31641 0.26562-0.51562 0-0.1875-0.078125-0.32812-0.23438-0.42188-0.11719-0.070313-0.38672-0.16406-0.8125-0.28125-0.58594-0.14453-0.99219-0.26953-1.2188-0.375-0.21875-0.10156-0.38672-0.25-0.5-0.4375-0.11719-0.1875-0.17188-0.39453-0.17188-0.625 0-0.20703 0.046875-0.39844 0.14062-0.57812 0.09375-0.17578 0.22266-0.32812 0.39062-0.45312 0.125-0.082031 0.28906-0.15625 0.5-0.21875 0.21875-0.0625 0.44531-0.09375 0.6875-0.09375 0.36328 0 0.67969 0.054687 0.95312 0.15625 0.28125 0.10547 0.48828 0.24609 0.625 0.42188 0.13281 0.17969 0.22656 0.41797 0.28125 0.71875l-0.78125 0.10938c-0.03125-0.23828-0.13672-0.42578-0.3125-0.5625-0.16797-0.13281-0.40234-0.20312-0.70312-0.20312-0.36719 0-0.625 0.0625-0.78125 0.1875-0.15625 0.11719-0.23438 0.25781-0.23438 0.42188 0 0.10547 0.03125 0.19531 0.09375 0.26562 0.0625 0.09375 0.16406 0.16797 0.3125 0.21875 0.070313 0.03125 0.30078 0.10156 0.6875 0.20312 0.5625 0.14844 0.95312 0.26562 1.1719 0.35938 0.22656 0.09375 0.40625 0.23438 0.53125 0.42188 0.125 0.17969 0.1875 0.40234 0.1875 0.67188 0 0.27344-0.078125 0.52344-0.23438 0.75-0.15625 0.23047-0.38281 0.41406-0.67188 0.54688-0.28125 0.125-0.60938 0.1875-0.98438 0.1875-0.60547 0-1.0703-0.125-1.3906-0.375-0.3125-0.25781-0.51172-0.63281-0.59375-1.125z"/>
</g>
<g id="ab">
<path d="m1.8906 0-1.7812-4.6719h0.84375l1 2.7969c0.10156 0.30469 0.20312 0.61719 0.29688 0.9375 0.070313-0.23828 0.17188-0.53125 0.29688-0.875l1.0312-2.8594h0.8125l-1.7656 4.6719z"/>
</g>
<g id="ap">
<path d="m0.6875 0v-6.4375h0.875l3.375 5.0469v-5.0469h0.82812v6.4375h-0.875l-3.3906-5.0625v5.0625z"/>
</g>
<g id="g">
<path d="m0.28125-1.9375v-0.79688h2.4375v0.79688z"/>
</g>
<g id="af">
<path d="m4.7656-2.8125-4.2656 1.8125v-0.78125l3.375-1.4062-3.375-1.3906v-0.78125l4.2656 1.7969z"/>
</g>
<g id="aa">
<path d="m0.6875 0v-6.4375h2.4375c0.42578 0 0.75391 0.023437 0.98438 0.0625 0.3125 0.054687 0.57031 0.15234 0.78125 0.29688 0.21875 0.14844 0.39062 0.35547 0.51562 0.625 0.13281 0.26172 0.20312 0.55469 0.20312 0.875 0 0.55469-0.17969 1.0156-0.53125 1.3906-0.34375 0.375-0.96875 0.5625-1.875 0.5625h-1.6562v2.625zm0.85938-3.375h1.6719c0.53906 0 0.92578-0.10156 1.1562-0.3125 0.23828-0.20703 0.35938-0.49219 0.35938-0.85938 0-0.26953-0.070312-0.5-0.20312-0.6875-0.13672-0.19531-0.32031-0.32812-0.54688-0.39062-0.13672-0.039063-0.40234-0.0625-0.79688-0.0625h-1.6406z"/>
</g>
<g id="o">
<path d="m3.6562 0v-0.6875c-0.36719 0.53125-0.85938 0.79688-1.4844 0.79688-0.27344 0-0.52734-0.054688-0.76562-0.15625-0.24219-0.11328-0.42188-0.25-0.54688-0.40625-0.11719-0.15625-0.19531-0.34766-0.23438-0.57812-0.03125-0.15625-0.046875-0.40625-0.046875-0.75v-2.8906h0.78125v2.5938c0 0.41797 0.019531 0.69531 0.0625 0.82812 0.039063 0.21094 0.14062 0.375 0.29688 0.5 0.16406 0.11719 0.36719 0.17188 0.60938 0.17188 0.23828 0 0.46094-0.054688 0.67188-0.17188 0.20703-0.125 0.35156-0.28906 0.4375-0.5 0.082031-0.20703 0.125-0.51562 0.125-0.92188v-2.5h0.79688v4.6719z"/>
</g>
<g id="k">
<path d="m1.3281 0h-0.73438v-6.4375h0.78125v2.2969c0.33203-0.41406 0.75781-0.625 1.2812-0.625 0.28906 0 0.5625 0.058594 0.8125 0.17188 0.25781 0.11719 0.47266 0.27734 0.64062 0.48438 0.16406 0.21094 0.29688 0.46484 0.39062 0.76562 0.09375 0.29297 0.14062 0.60547 0.14062 0.9375 0 0.80469-0.19922 1.4219-0.59375 1.8594-0.39844 0.4375-0.87109 0.65625-1.4219 0.65625-0.55469 0-0.98438-0.22656-1.2969-0.6875zm-0.015625-2.375c0 0.5625 0.078125 0.96875 0.23438 1.2188 0.25 0.40625 0.58203 0.60938 1 0.60938 0.35156 0 0.65625-0.14844 0.90625-0.45312 0.25-0.30078 0.375-0.75 0.375-1.3438 0-0.60156-0.12109-1.0508-0.35938-1.3438-0.24219-0.28906-0.53125-0.4375-0.875-0.4375-0.35547 0-0.65625 0.15234-0.90625 0.45312-0.25 0.30469-0.375 0.73438-0.375 1.2969z"/>
</g>
<g id="n">
<path d="m3.6406-1.7031 0.78125 0.09375c-0.085937 0.54297-0.30469 0.96484-0.65625 1.2656-0.35547 0.30469-0.78906 0.45312-1.2969 0.45312-0.63672 0-1.1484-0.20703-1.5312-0.625-0.38672-0.41406-0.57812-1.0156-0.57812-1.7969 0-0.50781 0.082031-0.95312 0.25-1.3281 0.16406-0.375 0.41406-0.65625 0.75-0.84375 0.34375-0.1875 0.71875-0.28125 1.125-0.28125 0.5 0 0.91016 0.13281 1.2344 0.39062 0.32031 0.25 0.53125 0.60938 0.625 1.0781l-0.76562 0.125c-0.074219-0.3125-0.20312-0.54688-0.39062-0.70312-0.1875-0.16406-0.41406-0.25-0.67188-0.25-0.40625 0-0.73438 0.14844-0.98438 0.4375-0.24219 0.28125-0.35938 0.73047-0.35938 1.3438 0 0.63672 0.11719 1.0938 0.35938 1.375 0.23828 0.28125 0.55078 0.42188 0.9375 0.42188 0.3125 0 0.57031-0.09375 0.78125-0.28125 0.20703-0.1875 0.33594-0.47656 0.39062-0.875z"/>
</g>
<g id="ae">
<path d="m0.65625 0v-6.4375h0.85938v3.1875l3.2031-3.1875h1.1406l-2.6875 2.6094 2.8125 3.8281h-1.125l-2.2969-3.2656-1.0469 1.0312v2.2344z"/>
</g>
<g id="u">
<path d="m0.5625 1.7969-0.09375-0.73438c0.17578 0.039063 0.32812 0.0625 0.45312 0.0625 0.17578 0 0.31641-0.03125 0.42188-0.09375 0.10156-0.054687 0.19141-0.13281 0.26562-0.23438 0.039063-0.085937 0.11719-0.28125 0.23438-0.59375 0.019531-0.042969 0.046875-0.10547 0.078125-0.1875l-1.7812-4.6875h0.85938l0.96875 2.7031c0.125 0.34375 0.23828 0.70312 0.34375 1.0781 0.082031-0.35156 0.1875-0.70703 0.3125-1.0625l1-2.7188h0.79688l-1.7812 4.75c-0.1875 0.50781-0.33594 0.86328-0.4375 1.0625-0.14844 0.25781-0.30859 0.44531-0.48438 0.5625-0.17969 0.125-0.39844 0.1875-0.65625 0.1875-0.14844 0-0.3125-0.03125-0.5-0.09375z"/>
</g>
<g id="z">
<path d="m3.3594 0h-0.79688v-5.0469c-0.1875 0.1875-0.4375 0.375-0.75 0.5625-0.3125 0.17969-0.58984 0.30859-0.82812 0.39062v-0.76562c0.4375-0.19531 0.82031-0.44141 1.1562-0.73438 0.33203-0.30078 0.56641-0.59375 0.70312-0.875h0.51562z"/>
</g>
<g id="y">
<path d="m0.8125 0v-0.90625h0.90625v0.90625z"/>
</g>
<g id="ao">
<path d="m0.375-3.1719c0-0.75781 0.078125-1.375 0.23438-1.8438s0.38281-0.82812 0.6875-1.0781c0.3125-0.25 0.70312-0.375 1.1719-0.375 0.35156 0 0.66016 0.074219 0.92188 0.21875 0.25781 0.13672 0.47266 0.33594 0.64062 0.59375 0.16406 0.26172 0.29688 0.57812 0.39062 0.95312 0.10156 0.375 0.15625 0.88672 0.15625 1.5312 0 0.75-0.078125 1.3594-0.23438 1.8281-0.15625 0.46094-0.39062 0.82031-0.70312 1.0781-0.30469 0.25-0.69531 0.375-1.1719 0.375-0.61719 0-1.1016-0.22266-1.4531-0.67188-0.42969-0.53125-0.64062-1.3984-0.64062-2.6094zm0.8125 0c0 1.0547 0.11719 1.7578 0.35938 2.1094 0.25 0.34375 0.55469 0.51562 0.92188 0.51562 0.36328 0 0.67188-0.17188 0.92188-0.51562 0.25-0.35156 0.375-1.0547 0.375-2.1094 0-1.0625-0.125-1.7656-0.375-2.1094-0.25-0.35156-0.55859-0.53125-0.92188-0.53125-0.36719 0-0.65625 0.15234-0.875 0.45312-0.27344 0.39844-0.40625 1.125-0.40625 2.1875z"/>
</g>
<g id="s">
<path d="m0.45312 0.39062 0.76562 0.10938c0.03125 0.23828 0.11719 0.41016 0.26562 0.51562 0.19531 0.14453 0.46875 0.21875 0.8125 0.21875 0.36328 0 0.64453-0.074219 0.84375-0.21875 0.19531-0.14844 0.33203-0.35156 0.40625-0.60938 0.039063-0.16797 0.054688-0.50391 0.046875-1.0156-0.34375 0.40625-0.77344 0.60938-1.2812 0.60938-0.64844 0-1.1484-0.22656-1.5-0.6875-0.34375-0.46875-0.51562-1.0234-0.51562-1.6719 0-0.44531 0.078125-0.85938 0.23438-1.2344 0.16406-0.375 0.39844-0.66016 0.70312-0.85938 0.30078-0.20703 0.66016-0.3125 1.0781-0.3125 0.55078 0 1.0039 0.21875 1.3594 0.65625v-0.5625h0.73438v4.0312c0 0.72656-0.078125 1.2422-0.23438 1.5469-0.14844 0.30078-0.38281 0.53906-0.70312 0.71875-0.3125 0.17578-0.70312 0.26562-1.1719 0.26562-0.5625 0-1.0156-0.125-1.3594-0.375-0.33594-0.25-0.49609-0.625-0.48438-1.125zm0.65625-2.8125c0 0.61719 0.11719 1.0625 0.35938 1.3438 0.23828 0.28125 0.53906 0.42188 0.90625 0.42188 0.36328 0 0.67188-0.14062 0.92188-0.42188s0.375-0.71875 0.375-1.3125c0-0.57031-0.13281-1.0039-0.39062-1.2969-0.25-0.28906-0.55469-0.4375-0.90625-0.4375-0.35547 0-0.65625 0.14844-0.90625 0.4375-0.24219 0.28125-0.35938 0.70312-0.35938 1.2656z"/>
</g>
<g id="p">
<path d="m0.59375 0v-4.6719h0.70312v0.65625c0.14453-0.22656 0.33594-0.41016 0.57812-0.54688 0.25-0.13281 0.53125-0.20312 0.84375-0.20312 0.34375 0 0.625 0.074219 0.84375 0.21875 0.21875 0.13672 0.375 0.33594 0.46875 0.59375 0.375-0.53906 0.85156-0.8125 1.4375-0.8125 0.46875 0 0.82812 0.13281 1.0781 0.39062 0.25 0.25 0.375 0.64062 0.375 1.1719v3.2031h-0.79688v-2.9375c0-0.32031-0.027344-0.55078-0.078125-0.6875-0.042969-0.13281-0.13281-0.24219-0.26562-0.32812-0.13672-0.09375-0.29688-0.14062-0.48438-0.14062-0.32422 0-0.59375 0.10938-0.8125 0.32812s-0.32812 0.57031-0.32812 1.0469v2.7188h-0.79688v-3.0312c0-0.35156-0.0625-0.61719-0.1875-0.79688-0.125-0.17578-0.33594-0.26562-0.625-0.26562-0.23047 0-0.4375 0.0625-0.625 0.1875-0.1875 0.11719-0.32422 0.28906-0.40625 0.51562-0.085937 0.21875-0.125 0.54297-0.125 0.96875v2.4219z"/>
</g>
<g id="q">
<path d="m0.79688 0v-0.90625h0.90625v0.90625c0 0.33203-0.0625 0.59766-0.1875 0.79688-0.11719 0.20703-0.29688 0.36719-0.54688 0.48438l-0.21875-0.34375c0.16406-0.074219 0.28516-0.18359 0.35938-0.32812 0.082031-0.13672 0.12891-0.33984 0.14062-0.60938z"/>
</g>
<g id="an">
<path d="m1.4531 0-1.4219-4.6719h0.8125l0.75 2.7031 0.26562 1c0.007813-0.050781 0.09375-0.375 0.25-0.96875l0.73438-2.7344h0.8125l0.70312 2.7188 0.23438 0.89062 0.26562-0.90625 0.79688-2.7031h0.76562l-1.4531 4.6719h-0.8125l-0.75-2.7969-0.1875-0.79688-0.9375 3.5938z"/>
</g>
<g id="x">
<path d="m0.59375 0v-6.4375h0.79688v3.6719l1.875-1.9062h1.0156l-1.7812 1.7344 1.9688 2.9375h-0.98438l-1.5312-2.3906-0.5625 0.54688v1.8438z"/>
</g>
<g id="am">
<path d="m4.5312-0.76562v0.76562h-4.2656c0-0.1875 0.03125-0.36719 0.09375-0.54688 0.11328-0.28906 0.28906-0.57812 0.53125-0.85938 0.23828-0.28125 0.58203-0.60156 1.0312-0.96875 0.69531-0.58203 1.1641-1.0391 1.4062-1.375 0.25-0.33203 0.375-0.64844 0.375-0.95312 0-0.3125-0.11719-0.57031-0.34375-0.78125-0.21875-0.21875-0.50781-0.32812-0.85938-0.32812-0.38672 0-0.69531 0.11719-0.92188 0.34375-0.23047 0.23047-0.34375 0.54688-0.34375 0.95312l-0.8125-0.09375c0.050781-0.60156 0.25781-1.0625 0.625-1.375 0.36328-0.32031 0.85156-0.48438 1.4688-0.48438 0.61328 0 1.0977 0.17188 1.4531 0.51562 0.36328 0.34375 0.54688 0.76562 0.54688 1.2656 0 0.26172-0.054687 0.51562-0.15625 0.76562-0.10547 0.25-0.28125 0.51562-0.53125 0.79688-0.24219 0.27344-0.64062 0.64844-1.2031 1.125-0.48047 0.39844-0.78906 0.66797-0.92188 0.8125-0.13672 0.14844-0.24609 0.28906-0.32812 0.42188z"/>
</g>
<g id="al">
<path d="m0.375-1.7031 0.79688-0.10938c0.09375 0.44922 0.24219 0.77344 0.45312 0.96875 0.21875 0.19922 0.48828 0.29688 0.8125 0.29688 0.36328 0 0.67188-0.125 0.92188-0.375 0.25781-0.25781 0.39062-0.58203 0.39062-0.96875 0-0.36328-0.12109-0.66016-0.35938-0.89062-0.23047-0.23828-0.52734-0.35938-0.89062-0.35938-0.15625 0-0.34375 0.03125-0.5625 0.09375l0.09375-0.70312c0.050781 0.011719 0.09375 0.015625 0.125 0.015625 0.33203 0 0.63281-0.085938 0.90625-0.26562 0.26953-0.17578 0.40625-0.44531 0.40625-0.8125 0-0.28906-0.10156-0.53125-0.29688-0.71875-0.19922-0.1875-0.45312-0.28125-0.76562-0.28125-0.30469 0-0.55859 0.10156-0.76562 0.29688-0.19922 0.1875-0.32812 0.47656-0.39062 0.85938l-0.79688-0.14062c0.10156-0.53125 0.32031-0.94141 0.65625-1.2344 0.34375-0.28906 0.76953-0.4375 1.2812-0.4375 0.35156 0 0.67578 0.078125 0.96875 0.23438 0.30078 0.14844 0.53125 0.35156 0.6875 0.60938 0.15625 0.26172 0.23438 0.53906 0.23438 0.82812 0 0.28125-0.078125 0.53906-0.23438 0.76562-0.14844 0.23047-0.36719 0.41406-0.65625 0.54688 0.38281 0.085937 0.67969 0.26562 0.89062 0.54688 0.20703 0.27344 0.3125 0.61719 0.3125 1.0312 0 0.5625-0.21094 1.043-0.625 1.4375-0.40625 0.38672-0.92188 0.57812-1.5469 0.57812-0.5625 0-1.0312-0.16406-1.4062-0.5-0.375-0.33203-0.58984-0.76953-0.64062-1.3125z"/>
</g>
<g id="ak">
<path d="m5.2969-2.2656 0.84375 0.21875c-0.17969 0.69922-0.5 1.2344-0.96875 1.6094-0.46094 0.36719-1.0273 0.54688-1.7031 0.54688-0.6875 0-1.25-0.14062-1.6875-0.42188s-0.77344-0.6875-1-1.2188c-0.21875-0.53906-0.32812-1.1172-0.32812-1.7344 0-0.67578 0.125-1.2656 0.375-1.7656 0.25781-0.5 0.625-0.875 1.0938-1.125 0.47656-0.25781 1-0.39062 1.5625-0.39062 0.64453 0 1.1875 0.16797 1.625 0.5 0.44531 0.32422 0.75391 0.78125 0.92188 1.375l-0.84375 0.1875c-0.14844-0.46875-0.35938-0.80469-0.64062-1.0156-0.28125-0.21875-0.64062-0.32812-1.0781-0.32812-0.49219 0-0.90234 0.12109-1.2344 0.35938-0.33594 0.24219-0.57031 0.5625-0.70312 0.96875-0.13672 0.39844-0.20312 0.80469-0.20312 1.2188 0 0.55469 0.078125 1.0391 0.23438 1.4531 0.16406 0.40625 0.41406 0.71094 0.75 0.90625 0.33203 0.19922 0.69531 0.29688 1.0938 0.29688 0.47656 0 0.87891-0.13281 1.2031-0.40625 0.33203-0.28125 0.5625-0.69141 0.6875-1.2344z"/>
</g>
<g id="aj">
<path d="m0.70312 0v-6.4375h2.8594c0.57031 0 1.0078 0.058594 1.3125 0.17188 0.30078 0.11719 0.53906 0.32031 0.71875 0.60938 0.17578 0.29297 0.26562 0.61719 0.26562 0.96875 0 0.46094-0.15234 0.84375-0.45312 1.1562-0.29297 0.3125-0.74609 0.51172-1.3594 0.59375 0.21875 0.11719 0.39062 0.22656 0.51562 0.32812 0.25 0.23047 0.48438 0.51562 0.70312 0.85938l1.125 1.75h-1.0781l-0.85938-1.3438c-0.24219-0.38281-0.44531-0.67578-0.60938-0.875-0.15625-0.20703-0.30469-0.35156-0.4375-0.4375-0.125-0.082031-0.25-0.14062-0.375-0.17188-0.10547-0.019531-0.26562-0.03125-0.48438-0.03125h-0.98438v2.8594zm0.85938-3.5938h1.8281c0.39453 0 0.70312-0.039063 0.92188-0.125 0.21875-0.082031 0.38281-0.21094 0.5-0.39062 0.11328-0.17578 0.17188-0.36719 0.17188-0.57812 0-0.30078-0.11719-0.55078-0.34375-0.75-0.21875-0.19531-0.57031-0.29688-1.0469-0.29688h-2.0312z"/>
</g>
<clipPath id="aq">
<path d="m526 67h165.92v105h-165.92z"/>
</clipPath>
</defs>
<path transform="matrix(.74973 0 0 .74973 .37486 .37486)" d="m661 271h20.002v-101.1l40.687 0.01042" fill="none" stroke="#000" stroke-miterlimit="10"/>
<path transform="matrix(.74973 0 0 .74973 .37486 .37486)" d="m726.94 169.91-6.9973 3.5013 1.7454-3.5013-1.7454-3.5013z" stroke="#000" stroke-miterlimit="10"/>
<path transform="matrix(.74973 0 0 .74973 .37486 .37486)" d="m521 141.39v-66.389h-371.1v0.68775" fill="none" stroke="#000" stroke-miterlimit="10"/>
<path transform="matrix(.74973 0 0 .74973 .37486 .37486)" d="m149.88 70.442 3.5273 6.9869-3.5117-1.7402-3.4856 1.7611z" stroke="#000" stroke-miterlimit="10"/>
<path transform="matrix(.74973 0 0 .74973 .37486 .37486)" d="m661 271c0 2.131-0.052102 4.2567-0.15631 6.3773-0.1042 2.1258-0.26051 4.2463-0.46892 6.3669-0.20841 2.1153-0.46892 4.2255-0.78153 6.3304s-0.67733 4.1994-1.0889 6.2887c-0.41682 2.0841-0.88053 4.163-1.4015 6.2262-0.51581 2.0632-1.0837 4.1109-1.6985 6.1481-0.62002 2.0372-1.2869 4.0535-2.0007 6.0595-0.71901 2.0007-1.4849 3.9858-2.2977 5.9501-0.81279 1.9695-1.6777 3.9129-2.5843 5.8354-0.91179 1.9226-1.8705 3.8243-2.8708 5.7-1.0056 1.8757-2.0528 3.7253-3.147 5.5541-1.0941 1.8236-2.23 3.6211-3.4127 5.3874-1.1827 1.7715-2.4071 3.5065-3.6732 5.2154-1.2661 1.709-2.5738 3.3866-3.9285 5.0331-1.3494 1.6464-2.7354 3.2564-4.163 4.8299-1.4328 1.5787-2.8969 3.1157-4.4026 4.6215-1.5058 1.5058-3.0428 2.9698-4.6215 4.4026-1.5735 1.4276-3.1834 2.8135-4.8299 4.1682-1.6464 1.3494-3.3241 2.6572-5.0331 3.9233-1.709 1.2661-3.444 2.4905-5.2154 3.6732-1.7663 1.1827-3.5638 2.3185-5.3926 3.4127-1.8236 1.0941-3.6732 2.1414-5.5489 3.147-1.8757 1.0004-3.7774 1.959-5.7 2.8708-1.9226 0.90658-3.866 1.7715-5.8354 2.5843-1.9643 0.81279-3.9493 1.5787-5.9501 2.2977-2.0059 0.7138-4.0223 1.3807-6.0595 2.0007-2.0372 0.61481-4.0848 1.1827-6.1481 1.6985-2.0632 0.52102-4.1421 0.98473-6.2262 1.4015-2.0893 0.41161-4.1838 0.77632-6.2887 1.0889s-4.2151 0.57312-6.3304 0.78153c-2.1206 0.20841-4.2411 0.36472-6.3669 0.46892-2.1206 0.1042-4.2515 0.15631-6.3773 0.15631s-4.2515-0.052102-6.3773-0.15631-4.2463-0.26051-6.3617-0.46892c-2.1206-0.20841-4.2307-0.46892-6.3356-0.78153s-4.1994-0.67733-6.2887-1.0889c-2.0841-0.41682-4.1578-0.88053-6.221-1.4015-2.0685-0.51581-4.1161-1.0837-6.1533-1.6985-2.0372-0.62002-4.0535-1.2869-6.0595-2.0007-2.0007-0.71901-3.9858-1.4849-5.9501-2.2977-1.9643-0.81279-3.9129-1.6777-5.8354-2.5843-1.9226-0.91179-3.8243-1.8705-5.7-2.8708-1.8757-1.0056-3.7253-2.0528-5.5489-3.147s-3.6211-2.23-5.3926-3.4127c-1.7663-1.1827-3.5065-2.4071-5.2154-3.6732-1.709-1.2661-3.3866-2.5738-5.0331-3.9233-1.6412-1.3547-3.2512-2.7406-4.8299-4.1682-1.5735-1.4328-3.1157-2.8969-4.6215-4.4026-1.5058-1.5058-2.9698-3.0428-4.3974-4.6215-1.4328-1.5735-2.8187-3.1834-4.1682-4.8299-1.3494-1.6464-2.6572-3.3241-3.9285-5.0331-1.2661-1.709-2.4905-3.444-3.6732-5.2154-1.1827-1.7663-2.3185-3.5638-3.4127-5.3874-1.0941-1.8288-2.1414-3.6784-3.147-5.5541-1.0004-1.8757-1.959-3.7774-2.8656-5.7-0.91179-1.9226-1.7715-3.866-2.5895-5.8354-0.81279-1.9643-1.5787-3.9493-2.2925-5.9501-0.71901-2.0059-1.3859-4.0223-2.0007-6.0595-0.62002-2.0372-1.1879-4.0848-1.7037-6.1481-0.51581-2.0632-0.98473-4.1421-1.3963-6.2262-0.41682-2.0893-0.78153-4.1838-1.0941-6.2887s-0.57312-4.2151-0.78153-6.3304c-0.20841-2.1206-0.36472-4.2411-0.46892-6.3669-0.1042-2.1206-0.15631-4.2463-0.15631-6.3773 0-2.1258 0.052103-4.2515 0.15631-6.3773 0.1042-2.1258 0.26051-4.2463 0.46892-6.3617 0.20841-2.1206 0.46892-4.2307 0.78153-6.3356s0.67733-4.1994 1.0941-6.2887c0.41161-2.0841 0.88053-4.1578 1.3963-6.221 0.51581-2.0685 1.0837-4.1161 1.7037-6.1533 0.6148-2.032 1.2817-4.0535 2.0007-6.0595 0.7138-2.0007 1.4797-3.9858 2.2925-5.9501 0.818-1.9643 1.6777-3.9129 2.5895-5.8354 0.90658-1.9226 1.8653-3.8243 2.8656-5.7 1.0056-1.8757 2.0528-3.7253 3.147-5.5489 1.0941-1.8236 2.23-3.6211 3.4127-5.3926 1.1827-1.7663 2.4071-3.5065 3.6732-5.2154 1.2713-1.709 2.5791-3.3866 3.9285-5.0331 1.3494-1.6412 2.7354-3.2512 4.1682-4.8299 1.4276-1.5735 2.8917-3.1157 4.3974-4.6215 1.5058-1.5058 3.048-2.9698 4.6215-4.3974 1.5787-1.4328 3.1887-2.8187 4.8299-4.1682 1.6464-1.3494 3.3241-2.6572 5.0331-3.9285 1.709-1.2661 3.4492-2.4905 5.2154-3.6732 1.7715-1.1827 3.569-2.3185 5.3926-3.4127 1.8236-1.0941 3.6732-2.1414 5.5489-3.147 1.8757-1.0004 3.7774-1.959 5.7-2.8656 1.9226-0.91179 3.8712-1.7715 5.8354-2.5895 1.9643-0.81279 3.9493-1.5787 5.9501-2.2925 2.0059-0.71901 4.0223-1.3859 6.0595-2.0007 2.0372-0.62002 4.0848-1.1879 6.1533-1.7037 2.0632-0.51581 4.1369-0.98473 6.221-1.3963 2.0893-0.41682 4.1838-0.78153 6.2887-1.0941s4.2151-0.57312 6.3356-0.78153c2.1153-0.20841 4.2359-0.36472 6.3617-0.46892 2.1258-0.1042 4.2515-0.15631 6.3773-0.15631s4.2567 0.052102 6.3773 0.15631c2.1258 0.1042 4.2463 0.26051 6.3669 0.46892 2.1153 0.20841 4.2255 0.46892 6.3304 0.78153s4.1994 0.67733 6.2887 1.0941c2.0841 0.41161 4.163 0.88053 6.2262 1.3963 2.0632 0.51581 4.1109 1.0837 6.1481 1.7037 2.0372 0.61481 4.0535 1.2817 6.0595 2.0007 2.0007 0.7138 3.9858 1.4797 5.9501 2.2925 1.9695 0.818 3.9129 1.6777 5.8354 2.5895 1.9226 0.90658 3.8243 1.8653 5.7 2.8656 1.8757 1.0056 3.7253 2.0528 5.5489 3.147 1.8288 1.0941 3.6263 2.23 5.3926 3.4127 1.7715 1.1827 3.5065 2.4071 5.2154 3.6732 1.709 1.2713 3.3866 2.5791 5.0331 3.9285s3.2564 2.7354 4.8299 4.1682c1.5787 1.4276 3.1157 2.8917 4.6215 4.3974s2.9698 3.048 4.4026 4.6215c1.4276 1.5787 2.8135 3.1887 4.163 4.8299 1.3547 1.6464 2.6624 3.3241 3.9285 5.0331 1.2661 1.709 2.4905 3.4492 3.6732 5.2154 1.1827 1.7715 2.3185 3.569 3.4127 5.3926 1.0941 1.8236 2.1414 3.6732 3.147 5.5489 1.0004 1.8757 1.959 3.7774 2.8708 5.7 0.90658 1.9226 1.7715 3.8712 2.5843 5.8354 0.81279 1.9643 1.5787 3.9493 2.2977 5.9501 0.7138 2.0059 1.3807 4.0275 2.0007 6.0595 0.6148 2.0372 1.1827 4.0848 1.6985 6.1533 0.52102 2.0632 0.98473 4.1369 1.4015 6.221 0.41161 2.0893 0.77632 4.1838 1.0889 6.2887s0.57312 4.2151 0.78153 6.3356c0.20841 2.1153 0.36472 4.2359 0.46892 6.3617 0.1042 2.1258 0.15631 4.2515 0.15631 6.3773z" fill="none" stroke="#000"/>
<path transform="matrix(.74973 0 0 .74973 .37486 .37486)" d="m821 220.73v240.27h-440v-155h-43.63" fill="none" stroke="#000" stroke-miterlimit="10"/>
<path transform="matrix(.74973 0 0 .74973 .37486 .37486)" d="m332.12 306 6.9973-3.5013-1.7454 3.5013 1.7454 3.4961z" stroke="#000" stroke-miterlimit="10"/>
<path d="m567.17 92.965c-32.988 0-41.238 24.367-14.848 29.242-26.391 10.719 3.3008 34.113 24.742 24.363 14.844 19.496 64.328 19.496 80.82 0 32.988 0 32.988-19.492 12.371-29.238 20.617-19.492-12.371-38.984-41.234-29.238-20.617-14.621-53.605-14.621-61.852 4.8711z" fill="#fff"/>
<g clip-path="url(#aq)">
<path transform="matrix(.74973 0 0 .74973 .37486 .37486)" d="m756 123.5c-44 0-55.004 32.501-19.804 39.004-35.2 14.297 4.4026 45.501 33.002 32.496 19.799 26.004 85.802 26.004 107.8 0 44 0 44-25.999 16.501-38.998 27.5-25.999-16.501-51.998-54.999-38.998-27.5-19.502-71.5-19.502-82.499 6.4971z" fill="none" stroke="#000" stroke-miterlimit="10"/>
</g>
<g>
<use x="567.76752" y="119.95665" xlink:href="#v"/>
<use x="573.76825" y="119.95665" xlink:href="#d"/>
<use x="578.77179" y="119.95665" xlink:href="#i"/>
<use x="583.77539" y="119.95665" xlink:href="#m"/>
<use x="588.77893" y="119.95665" xlink:href="#d"/>
<use x="593.78253" y="119.95665" xlink:href="#c"/>
<use x="596.7785" y="119.95665" xlink:href="#ai"/>
<use x="599.27808" y="119.95665" xlink:href="#ad"/>
<use x="605.77527" y="119.95665" xlink:href="#ac"/>
<use x="608.27484" y="119.95665" xlink:href="#ah"/>
<use x="614.77197" y="119.95665" xlink:href="#v"/>
<use x="620.77277" y="119.95665" xlink:href="#ac"/>
<use x="623.27234" y="119.95665" xlink:href="#glyph-0-10"/>
<use x="625.77191" y="119.95665" xlink:href="#t"/>
<use x="630.77551" y="119.95665" xlink:href="#e"/>
<use x="635.77905" y="119.95665" xlink:href="#c"/>
<use x="638.77502" y="119.95665" xlink:href="#j"/>
<use x="641.2746" y="119.95665" xlink:href="#d"/>
<use x="646.2782" y="119.95665" xlink:href="#r"/>
</g>
<path transform="matrix(.74973 0 0 .74973 .37486 .37486)" d="m371 271h23.634" fill="none" stroke="#000" stroke-miterlimit="10"/>
<path transform="matrix(.74973 0 0 .74973 .37486 .37486)" d="m399.88 271-6.9973 3.5013 1.7506-3.5013-1.7506-3.5013z" stroke="#000" stroke-miterlimit="10"/>
<path transform="matrix(.74973 0 0 .74973 .37486 .37486)" d="m291 201v-95.498l-133.63-0.020841" fill="none" stroke="#000" stroke-miterlimit="10"/>
<path transform="matrix(.74973 0 0 .74973 .37486 .37486)" d="m152.12 105.48 7.0025-3.5013-1.7506 3.5013 1.7506 3.5013z" stroke="#000" stroke-miterlimit="10"/>
<path transform="matrix(.74973 0 0 .74973 .37486 .37486)" d="m291 201 79.998 69.999-79.998 69.999-80.003-69.999z" fill="#fff" stroke="#000" stroke-miterlimit="10"/>
<g>
<use x="193.16068" y="206.17549" xlink:href="#ag"/>
<use x="200.65503" y="206.17549" xlink:href="#d"/>
<use x="205.6586" y="206.17549" xlink:href="#b"/>
<use x="207.65739" y="206.17549" xlink:href="#f"/>
<use x="212.66095" y="206.17549" xlink:href="#glyph-0-10"/>
<use x="215.16054" y="206.17549" xlink:href="#w"/>
</g>
<g>
<use x="220.66489" y="206.17549" xlink:href="#a"/>
<use x="225.66846" y="206.17549" xlink:href="#c"/>
<use x="228.66444" y="206.17549" xlink:href="#b"/>
<use x="230.66324" y="206.17549" xlink:href="#l"/>
<use x="233.16283" y="206.17549" xlink:href="#b"/>
<use x="235.16161" y="206.17549" xlink:href="#a"/>
<use x="240.16518" y="206.17549" xlink:href="#c"/>
</g>
<path transform="matrix(.74973 0 0 .74973 .37486 .37486)" d="m95.998 441h195v-93.628" fill="none" stroke="#000" stroke-miterlimit="10"/>
<path transform="matrix(.74973 0 0 .74973 .37486 .37486)" d="m291 342.12 3.5013 7.0025-3.5013-1.7506-3.5013 1.7506z" stroke="#000" stroke-miterlimit="10"/>
<path transform="matrix(.74973 0 0 .74973 .37486 .37486)" d="m88.501 418.5c0 0.48976-0.046892 0.97952-0.14589 1.4641-0.093784 0.47934-0.23967 0.94826-0.42724 1.4068-0.18757 0.45329-0.41682 0.88574-0.69296 1.2973-0.27093 0.4064-0.58354 0.78674-0.93263 1.1358-0.34908 0.34908-0.72422 0.65649-1.1358 0.93263-0.41161 0.27093-0.83884 0.50539-1.2973 0.69296-0.45329 0.18757-0.92221 0.32824-1.4068 0.42724-0.48455 0.093784-0.9691 0.14068-1.4641 0.14068-0.48976 0-0.97952-0.046892-1.4589-0.14068-0.48455-0.098994-0.95347-0.23967-1.412-0.42724-0.45329-0.18757-0.88574-0.42203-1.2921-0.69296-0.41161-0.27614-0.79195-0.58354-1.141-0.93263-0.34387-0.34908-0.65649-0.72943-0.93263-1.1358-0.27093-0.41161-0.50018-0.84406-0.69296-1.2973-0.18757-0.4585-0.32824-0.92742-0.42203-1.4068-0.098994-0.48455-0.14589-0.97431-0.14589-1.4641 0-0.49497 0.046892-0.97952 0.14589-1.4641 0.093784-0.48455 0.23446-0.95347 0.42203-1.4068 0.19278-0.45329 0.42203-0.88574 0.69296-1.2973 0.27614-0.4064 0.58876-0.78674 0.93263-1.1358 0.34908-0.34908 0.72943-0.65649 1.141-0.93263 0.4064-0.27093 0.83884-0.50539 1.2921-0.69296 0.4585-0.18757 0.92742-0.32824 1.412-0.42724 0.47934-0.093784 0.9691-0.14589 1.4589-0.14589 0.49497 0 0.97952 0.052102 1.4641 0.14589 0.48455 0.098994 0.95347 0.23967 1.4068 0.42724 0.4585 0.18757 0.88574 0.42203 1.2973 0.69296 0.41161 0.27614 0.78674 0.58354 1.1358 0.93263 0.34908 0.34908 0.6617 0.72943 0.93263 1.1358 0.27614 0.41161 0.50539 0.84406 0.69296 1.2973 0.18757 0.45329 0.33345 0.92221 0.42724 1.4068 0.098994 0.48455 0.14589 0.9691 0.14589 1.4641z" fill="#fff" stroke="#000"/>
<path transform="matrix(.74973 0 0 .74973 .37486 .37486)" d="m80.998 426v25.004m0-20.002h-15m15 0h15m-15 20.002-15 19.997m15-19.997 15 19.997" fill="none" stroke="#000" stroke-miterlimit="10"/>
<g>
<use x="51.602448" y="366.61752" xlink:href="#ad"/>
<use x="58.099609" y="366.61752" xlink:href="#h"/>
<use x="62.597984" y="366.61752" xlink:href="#a"/>
<use x="67.601547" y="366.61752" xlink:href="#c"/>
</g>
<path transform="matrix(.74973 0 0 .74973 .37486 .37486)" d="m80.998 161v243.63" fill="none" stroke="#000" stroke-miterlimit="10"/>
<path transform="matrix(.74973 0 0 .74973 .37486 .37486)" d="m80.998 409.88-3.4961-6.9973 3.4961 1.7506 3.5013-1.7506z" stroke="#000" stroke-miterlimit="10"/>
<path transform="matrix(.74973 0 0 .74973 .37486 .37486)" d="m40.999 1.0005h110v160h-140v-130z" fill="#fff" stroke="#000" stroke-miterlimit="10"/>
<g>
<use x="11.714517" y="31.488621" xlink:href="#v"/>
<use x="17.715279" y="31.488621" xlink:href="#t"/>
<use x="22.718842" y="31.488621" xlink:href="#t"/>
<use x="27.722404" y="31.488621" xlink:href="#c"/>
<use x="30.718391" y="31.488621" xlink:href="#e"/>
<use x="35.721954" y="31.488621" xlink:href="#ab"/>
<use x="40.220329" y="31.488621" xlink:href="#a"/>
<use x="45.223892" y="31.488621" xlink:href="#i"/>
<use x="50.227455" y="31.488621" xlink:href="#glyph-0-10"/>
<use x="52.727039" y="31.488621" xlink:href="#ap"/>
<use x="59.224205" y="31.488621" xlink:href="#e"/>
<use x="64.227768" y="31.488621" xlink:href="#i"/>
<use x="69.231331" y="31.488621" xlink:href="#a"/>
<use x="74.234894" y="31.488621" xlink:href="#g"/>
<use x="77.230881" y="31.488621" xlink:href="#w"/>
</g>
<g>
<use x="82.735237" y="31.488621" xlink:href="#a"/>
<use x="87.7388" y="31.488621" xlink:href="#c"/>
<use x="90.734795" y="31.488621" xlink:href="#b"/>
<use x="92.733582" y="31.488621" xlink:href="#l"/>
<use x="95.233162" y="31.488621" xlink:href="#b"/>
<use x="97.231956" y="31.488621" xlink:href="#a"/>
<use x="102.23552" y="31.488621" xlink:href="#c"/>
<use x="105.23151" y="31.488621" xlink:href="#h"/>
</g>
<g>
<use x="32.343781" y="53.230766" xlink:href="#g"/>
<use x="35.339767" y="53.230766" xlink:href="#af"/>
<use x="40.593731" y="53.230766" xlink:href="#glyph-0-10"/>
<use x="43.093315" y="53.230766" xlink:href="#aa"/>
<use x="49.094074" y="53.230766" xlink:href="#o"/>
<use x="54.097637" y="53.230766" xlink:href="#k"/>
<use x="59.1012" y="53.230766" xlink:href="#r"/>
<use x="61.099991" y="53.230766" xlink:href="#b"/>
<use x="63.098782" y="53.230766" xlink:href="#n"/>
<use x="67.597153" y="53.230766" xlink:href="#g"/>
<use x="70.59314" y="53.230766" xlink:href="#ae"/>
<use x="76.593903" y="53.230766" xlink:href="#a"/>
<use x="81.597466" y="53.230766" xlink:href="#u"/>
<use x="86.09584" y="53.230766" xlink:href="#g"/>
</g>
<g>
<use x="36.971016" y="63.726971" xlink:href="#ag"/>
<use x="44.465378" y="63.726971" xlink:href="#d"/>
<use x="49.468941" y="63.726971" xlink:href="#b"/>
<use x="51.467731" y="63.726971" xlink:href="#f"/>
<use x="56.471294" y="63.726971" xlink:href="#w"/>
</g>
<g>
<use x="61.975651" y="63.726971" xlink:href="#a"/>
<use x="66.979218" y="63.726971" xlink:href="#c"/>
<use x="69.975204" y="63.726971" xlink:href="#b"/>
<use x="71.973991" y="63.726971" xlink:href="#l"/>
<use x="74.473579" y="63.726971" xlink:href="#b"/>
<use x="76.472366" y="63.726971" xlink:href="#a"/>
<use x="81.475929" y="63.726971" xlink:href="#c"/>
</g>
<g>
<use x="20.090397" y="74.972908" xlink:href="#g"/>
<use x="23.086384" y="74.972908" xlink:href="#af"/>
<use x="28.340345" y="74.972908" xlink:href="#aa"/>
<use x="34.341106" y="74.972908" xlink:href="#o"/>
<use x="39.344669" y="74.972908" xlink:href="#k"/>
<use x="44.348232" y="74.972908" xlink:href="#r"/>
<use x="46.347023" y="74.972908" xlink:href="#b"/>
<use x="48.34581" y="74.972908" xlink:href="#n"/>
<use x="52.844185" y="74.972908" xlink:href="#g"/>
<use x="55.840172" y="74.972908" xlink:href="#ae"/>
<use x="61.840935" y="74.972908" xlink:href="#a"/>
<use x="66.844498" y="74.972908" xlink:href="#u"/>
<use x="71.342873" y="74.972908" xlink:href="#glyph-0-10"/>
<use x="73.842461" y="74.972908" xlink:href="#e"/>
<use x="78.846024" y="74.972908" xlink:href="#l"/>
<use x="81.345604" y="74.972908" xlink:href="#glyph-0-10"/>
<use x="83.845192" y="74.972908" xlink:href="#h"/>
<use x="88.343567" y="74.972908" xlink:href="#o"/>
<use x="93.34713" y="74.972908" xlink:href="#k"/>
<use x="98.350693" y="74.972908" xlink:href="#g"/>
</g>
<g>
<use x="48.216953" y="85.469116" xlink:href="#f"/>
<use x="53.220512" y="85.469116" xlink:href="#e"/>
<use x="58.224075" y="85.469116" xlink:href="#i"/>
<use x="63.227638" y="85.469116" xlink:href="#a"/>
<use x="68.231201" y="85.469116" xlink:href="#z"/>
</g>
<g>
<use x="59.474602" y="95.965324" xlink:href="#y"/>
</g>
<g>
<use x="59.474602" y="107.21126" xlink:href="#y"/>
</g>
<g>
<use x="59.474602" y="117.70747" xlink:href="#y"/>
</g>
<g>
<use x="109.64788" y="349.37375" xlink:href="#z"/>
<use x="114.65144" y="349.37375" xlink:href="#ao"/>
<use x="119.65501" y="349.37375" xlink:href="#g"/>
<use x="122.65099" y="349.37375" xlink:href="#i"/>
<use x="127.65456" y="349.37375" xlink:href="#b"/>
<use x="129.65335" y="349.37375" xlink:href="#s"/>
<use x="134.65691" y="349.37375" xlink:href="#b"/>
<use x="136.6557" y="349.37375" xlink:href="#j"/>
<use x="139.15529" y="349.37375" xlink:href="#glyph-0-10"/>
<use x="141.65486" y="349.37375" xlink:href="#aa"/>
<use x="147.65562" y="349.37375" xlink:href="#m"/>
<use x="152.65919" y="349.37375" xlink:href="#e"/>
<use x="157.66275" y="349.37375" xlink:href="#f"/>
<use x="162.66632" y="349.37375" xlink:href="#a"/>
<use x="167.66988" y="349.37375" xlink:href="#glyph-0-10"/>
<use x="170.16946" y="349.37375" xlink:href="#f"/>
<use x="175.17303" y="349.37375" xlink:href="#o"/>
<use x="180.17659" y="349.37375" xlink:href="#p"/>
<use x="187.67096" y="349.37375" xlink:href="#k"/>
<use x="192.67451" y="349.37375" xlink:href="#a"/>
<use x="197.67809" y="349.37375" xlink:href="#c"/>
</g>
<g>
<use x="200.17766" y="349.37375" xlink:href="#q"/>
<use x="202.67725" y="349.37375" xlink:href="#v"/>
<use x="208.67801" y="349.37375" xlink:href="#d"/>
<use x="213.68158" y="349.37375" xlink:href="#i"/>
<use x="218.68513" y="349.37375" xlink:href="#m"/>
<use x="223.68871" y="349.37375" xlink:href="#d"/>
<use x="228.69226" y="349.37375" xlink:href="#c"/>
<use x="231.68825" y="349.37375" xlink:href="#glyph-0-10"/>
<use x="234.18784" y="349.37375" xlink:href="#f"/>
<use x="239.19141" y="349.37375" xlink:href="#o"/>
<use x="244.19496" y="349.37375" xlink:href="#p"/>
<use x="251.68933" y="349.37375" xlink:href="#k"/>
<use x="256.6929" y="349.37375" xlink:href="#a"/>
<use x="261.69644" y="349.37375" xlink:href="#c"/>
</g>
<g>
<use x="264.19604" y="349.37375" xlink:href="#q"/>
</g>
<g>
<use x="111.65106" y="359.86996" xlink:href="#d"/>
<use x="116.65462" y="359.86996" xlink:href="#s"/>
<use x="121.65819" y="359.86996" xlink:href="#a"/>
<use x="126.66175" y="359.86996" xlink:href="#g"/>
<use x="129.65773" y="359.86996" xlink:href="#k"/>
<use x="134.6613" y="359.86996" xlink:href="#d"/>
<use x="139.66486" y="359.86996" xlink:href="#f"/>
<use x="144.66843" y="359.86996" xlink:href="#i"/>
<use x="149.67198" y="359.86996" xlink:href="#q"/>
<use x="152.17157" y="359.86996" xlink:href="#glyph-0-10"/>
<use x="154.67116" y="359.86996" xlink:href="#s"/>
<use x="159.67473" y="359.86996" xlink:href="#a"/>
<use x="164.67828" y="359.86996" xlink:href="#f"/>
<use x="169.68185" y="359.86996" xlink:href="#i"/>
<use x="174.68541" y="359.86996" xlink:href="#a"/>
<use x="179.68898" y="359.86996" xlink:href="#c"/>
</g>
<g>
<use x="182.18855" y="359.86996" xlink:href="#q"/>
<use x="184.68814" y="359.86996" xlink:href="#h"/>
<use x="189.18652" y="359.86996" xlink:href="#j"/>
<use x="191.68611" y="359.86996" xlink:href="#d"/>
<use x="196.68967" y="359.86996" xlink:href="#j"/>
<use x="199.18925" y="359.86996" xlink:href="#a"/>
<use x="204.19281" y="359.86996" xlink:href="#glyph-0-10"/>
<use x="206.6924" y="359.86996" xlink:href="#a"/>
<use x="211.69597" y="359.86996" xlink:href="#f"/>
<use x="216.69952" y="359.86996" xlink:href="#n"/>
<use x="221.19791" y="359.86996" xlink:href="#c"/>
<use x="224.19389" y="359.86996" xlink:href="#u"/>
<use x="228.69226" y="359.86996" xlink:href="#t"/>
<use x="233.69583" y="359.86996" xlink:href="#j"/>
<use x="236.1954" y="359.86996" xlink:href="#a"/>
<use x="241.19897" y="359.86996" xlink:href="#i"/>
<use x="246.20253" y="359.86996" xlink:href="#glyph-0-10"/>
<use x="248.70212" y="359.86996" xlink:href="#an"/>
<use x="255.19928" y="359.86996" xlink:href="#b"/>
<use x="257.19809" y="359.86996" xlink:href="#j"/>
<use x="259.69766" y="359.86996" xlink:href="#m"/>
</g>
<g>
<use x="136.91927" y="371.11591" xlink:href="#t"/>
<use x="141.92284" y="371.11591" xlink:href="#o"/>
<use x="146.92639" y="371.11591" xlink:href="#k"/>
<use x="151.92996" y="371.11591" xlink:href="#r"/>
<use x="153.92876" y="371.11591" xlink:href="#b"/>
<use x="155.92754" y="371.11591" xlink:href="#n"/>
<use x="160.42592" y="371.11591" xlink:href="#glyph-0-10"/>
<use x="162.92551" y="371.11591" xlink:href="#x"/>
<use x="167.42387" y="371.11591" xlink:href="#a"/>
<use x="172.42744" y="371.11591" xlink:href="#u"/>
<use x="176.92581" y="371.11591" xlink:href="#glyph-0-10"/>
<use x="179.4254" y="371.11591" xlink:href="#e"/>
<use x="184.42896" y="371.11591" xlink:href="#l"/>
<use x="186.92854" y="371.11591" xlink:href="#glyph-0-10"/>
<use x="189.42813" y="371.11591" xlink:href="#p"/>
<use x="196.9225" y="371.11591" xlink:href="#d"/>
<use x="201.92606" y="371.11591" xlink:href="#b"/>
<use x="203.92485" y="371.11591" xlink:href="#f"/>
<use x="208.92841" y="371.11591" xlink:href="#glyph-0-10"/>
<use x="211.42799" y="371.11591" xlink:href="#w"/>
</g>
<g>
<use x="216.93236" y="371.11591" xlink:href="#a"/>
<use x="221.93591" y="371.11591" xlink:href="#c"/>
<use x="224.9319" y="371.11591" xlink:href="#b"/>
<use x="226.93069" y="371.11591" xlink:href="#l"/>
<use x="229.43028" y="371.11591" xlink:href="#b"/>
<use x="231.42906" y="371.11591" xlink:href="#a"/>
<use x="236.43263" y="371.11591" xlink:href="#c"/>
</g>
<path transform="matrix(.74973 0 0 .74973 .37486 .37486)" d="m491 191h49.997l20.002 19.997v30h-49.997l-20.002-19.997z" fill="none" stroke="#000" stroke-miterlimit="10"/>
<path d="m368.49 143.57h37.484l14.996 14.992h-37.484z" fill-opacity=".051"/>
<path d="m368.49 143.57 14.996 14.992v22.492l-14.996-14.992z" fill-opacity=".102"/>
<path transform="matrix(.74973 0 0 .74973 .37486 .37486)" d="m511 241v-30l-20.002-19.997m20.002 19.997h49.997" fill="none" stroke="#000" stroke-miterlimit="10"/>
<g>
<use x="393.10403" y="167.18959" xlink:href="#h"/>
<use x="397.60242" y="167.18959" xlink:href="#o"/>
<use x="402.60599" y="167.18959" xlink:href="#k"/>
<use x="407.60956" y="167.18959" xlink:href="#g"/>
</g>
<g>
<use x="385.59503" y="178.43552" xlink:href="#f"/>
<use x="390.5986" y="178.43552" xlink:href="#e"/>
<use x="395.60217" y="178.43552" xlink:href="#i"/>
<use x="400.60571" y="178.43552" xlink:href="#a"/>
<use x="405.60928" y="178.43552" xlink:href="#h"/>
<use x="410.10767" y="178.43552" xlink:href="#g"/>
<use x="413.10364" y="178.43552" xlink:href="#z"/>
</g>
<path transform="matrix(.74973 0 0 .74973 .37486 .37486)" d="m448 261h49.997l20.002 19.997v30h-49.997l-20.002-19.997z" fill="none" stroke="#000" stroke-miterlimit="10"/>
<path d="m336.25 196.05h37.484l14.996 14.992h-37.484z" fill-opacity=".051"/>
<path d="m336.25 196.05 14.996 14.992v22.492l-14.996-14.992z" fill-opacity=".102"/>
<path transform="matrix(.74973 0 0 .74973 .37486 .37486)" d="m468 311v-30l-20.002-19.997m20.002 19.997h49.997" fill="none" stroke="#000" stroke-miterlimit="10"/>
<g>
<use x="360.86569" y="219.67062" xlink:href="#h"/>
<use x="365.36407" y="219.67062" xlink:href="#o"/>
<use x="370.36765" y="219.67062" xlink:href="#k"/>
<use x="375.37119" y="219.67062" xlink:href="#g"/>
</g>
<g>
<use x="355.60587" y="230.91655" xlink:href="#f"/>
<use x="360.60944" y="230.91655" xlink:href="#e"/>
<use x="365.61301" y="230.91655" xlink:href="#i"/>
<use x="370.61658" y="230.91655" xlink:href="#a"/>
<use x="375.62012" y="230.91655" xlink:href="#g"/>
<use x="378.61612" y="230.91655" xlink:href="#am"/>
</g>
<path transform="matrix(.74973 0 0 .74973 .37486 .37486)" d="m541 261h50.002l20.002 19.997v30h-50.002l-20.002-19.997z" fill="none" stroke="#000" stroke-miterlimit="10"/>
<path d="m405.98 196.05h37.488l14.996 14.992h-37.488z" fill-opacity=".051"/>
<path d="m405.98 196.05 14.996 14.992v22.492l-14.996-14.992z" fill-opacity=".102"/>
<path transform="matrix(.74973 0 0 .74973 .37486 .37486)" d="m561 311v-30l-20.002-19.997m20.002 19.997h50.002" fill="none" stroke="#000" stroke-miterlimit="10"/>
<g>
<use x="430.59052" y="219.67062" xlink:href="#h"/>
<use x="435.08887" y="219.67062" xlink:href="#o"/>
<use x="440.09244" y="219.67062" xlink:href="#k"/>
<use x="445.09601" y="219.67062" xlink:href="#g"/>
</g>
<g>
<use x="425.33069" y="230.91655" xlink:href="#f"/>
<use x="430.33423" y="230.91655" xlink:href="#e"/>
<use x="435.3378" y="230.91655" xlink:href="#i"/>
<use x="440.34137" y="230.91655" xlink:href="#a"/>
<use x="445.34494" y="230.91655" xlink:href="#g"/>
<use x="448.34091" y="230.91655" xlink:href="#al"/>
</g>
<g>
<use x="180.16927" y="32.23835" xlink:href="#ak"/>
<use x="186.66643" y="32.23835" xlink:href="#e"/>
<use x="191.67" y="32.23835" xlink:href="#p"/>
<use x="199.16435" y="32.23835" xlink:href="#p"/>
<use x="206.65872" y="32.23835" xlink:href="#b"/>
<use x="208.65752" y="32.23835" xlink:href="#j"/>
<use x="211.15709" y="32.23835" xlink:href="#g"/>
<use x="214.15308" y="32.23835" xlink:href="#aj"/>
<use x="220.65025" y="32.23835" xlink:href="#a"/>
<use x="225.65381" y="32.23835" xlink:href="#ab"/>
<use x="230.15219" y="32.23835" xlink:href="#a"/>
<use x="235.15575" y="32.23835" xlink:href="#d"/>
<use x="240.15932" y="32.23835" xlink:href="#r"/>
<use x="242.1581" y="32.23835" xlink:href="#glyph-0-10"/>
<use x="244.65768" y="32.23835" xlink:href="#h"/>
<use x="249.15605" y="32.23835" xlink:href="#n"/>
<use x="253.65443" y="32.23835" xlink:href="#m"/>
<use x="258.65799" y="32.23835" xlink:href="#a"/>
<use x="263.66156" y="32.23835" xlink:href="#p"/>
<use x="271.15591" y="32.23835" xlink:href="#a"/>
<use x="276.15948" y="32.23835" xlink:href="#glyph-0-10"/>
<use x="278.65906" y="32.23835" xlink:href="#e"/>
<use x="283.66263" y="32.23835" xlink:href="#l"/>
</g>
<g>
<use x="172.40254" y="43.484287" xlink:href="#ab"/>
<use x="176.90092" y="43.484287" xlink:href="#a"/>
<use x="181.90448" y="43.484287" xlink:href="#c"/>
<use x="184.90047" y="43.484287" xlink:href="#b"/>
<use x="186.89926" y="43.484287" xlink:href="#l"/>
<use x="189.39885" y="43.484287" xlink:href="#b"/>
<use x="191.39764" y="43.484287" xlink:href="#n"/>
<use x="195.89601" y="43.484287" xlink:href="#d"/>
<use x="200.89958" y="43.484287" xlink:href="#j"/>
<use x="203.39915" y="43.484287" xlink:href="#b"/>
<use x="205.39795" y="43.484287" xlink:href="#e"/>
<use x="210.40152" y="43.484287" xlink:href="#f"/>
<use x="215.40508" y="43.484287" xlink:href="#glyph-0-10"/>
<use x="217.90466" y="43.484287" xlink:href="#j"/>
<use x="220.40425" y="43.484287" xlink:href="#m"/>
<use x="225.40781" y="43.484287" xlink:href="#c"/>
<use x="228.40379" y="43.484287" xlink:href="#e"/>
<use x="233.40736" y="43.484287" xlink:href="#o"/>
<use x="238.41092" y="43.484287" xlink:href="#s"/>
<use x="243.41449" y="43.484287" xlink:href="#m"/>
<use x="248.41805" y="43.484287" xlink:href="#glyph-0-10"/>
<use x="250.91763" y="43.484287" xlink:href="#n"/>
<use x="255.41602" y="43.484287" xlink:href="#e"/>
<use x="260.41959" y="43.484287" xlink:href="#f"/>
<use x="265.42313" y="43.484287" xlink:href="#h"/>
<use x="269.92151" y="43.484287" xlink:href="#a"/>
<use x="274.92508" y="43.484287" xlink:href="#f"/>
<use x="279.92862" y="43.484287" xlink:href="#h"/>
<use x="284.427" y="43.484287" xlink:href="#o"/>
<use x="289.43057" y="43.484287" xlink:href="#h"/>
</g>
<g>
<use x="11.726231" y="225.66846" xlink:href="#l"/>
<use x="14.225816" y="225.66846" xlink:href="#a"/>
<use x="19.22938" y="225.66846" xlink:href="#j"/>
<use x="21.728964" y="225.66846" xlink:href="#n"/>
<use x="26.227339" y="225.66846" xlink:href="#m"/>
<use x="31.230902" y="225.66846" xlink:href="#glyph-0-10"/>
<use x="33.730488" y="225.66846" xlink:href="#t"/>
<use x="38.734051" y="225.66846" xlink:href="#o"/>
<use x="43.737614" y="225.66846" xlink:href="#k"/>
<use x="48.741177" y="225.66846" xlink:href="#r"/>
<use x="50.739964" y="225.66846" xlink:href="#b"/>
<use x="52.738754" y="225.66846" xlink:href="#n"/>
</g>
<g>
<use x="14.982867" y="236.16466" xlink:href="#x"/>
<use x="19.481241" y="236.16466" xlink:href="#a"/>
<use x="24.484804" y="236.16466" xlink:href="#u"/>
<use x="28.983179" y="236.16466" xlink:href="#h"/>
<use x="33.481552" y="236.16466" xlink:href="#glyph-0-10"/>
<use x="35.98114" y="236.16466" xlink:href="#l"/>
<use x="38.480724" y="236.16466" xlink:href="#c"/>
<use x="41.476711" y="236.16466" xlink:href="#e"/>
<use x="46.480274" y="236.16466" xlink:href="#p"/>
</g>
<g>
<use x="13.22569" y="247.4106" xlink:href="#k"/>
<use x="18.229254" y="247.4106" xlink:href="#r"/>
<use x="20.228043" y="247.4106" xlink:href="#e"/>
<use x="25.231606" y="247.4106" xlink:href="#n"/>
<use x="29.729979" y="247.4106" xlink:href="#x"/>
<use x="34.228355" y="247.4106" xlink:href="#n"/>
<use x="38.726727" y="247.4106" xlink:href="#m"/>
<use x="43.730289" y="247.4106" xlink:href="#d"/>
<use x="48.733852" y="247.4106" xlink:href="#b"/>
<use x="50.732643" y="247.4106" xlink:href="#f"/>
</g>
<g>
<use x="130.18343" y="94.465866" xlink:href="#l"/>
<use x="132.68301" y="94.465866" xlink:href="#b"/>
<use x="134.68181" y="94.465866" xlink:href="#c"/>
<use x="137.6778" y="94.465866" xlink:href="#h"/>
<use x="142.17616" y="94.465866" xlink:href="#j"/>
<use x="144.67575" y="94.465866" xlink:href="#g"/>
<use x="147.67174" y="94.465866" xlink:href="#n"/>
<use x="152.17012" y="94.465866" xlink:href="#e"/>
<use x="157.17368" y="94.465866" xlink:href="#p"/>
<use x="164.66805" y="94.465866" xlink:href="#p"/>
<use x="172.1624" y="94.465866" xlink:href="#b"/>
<use x="174.16119" y="94.465866" xlink:href="#j"/>
<use x="176.66078" y="94.465866" xlink:href="#glyph-0-10"/>
<use x="179.16035" y="94.465866" xlink:href="#e"/>
<use x="184.16393" y="94.465866" xlink:href="#l"/>
<use x="186.66351" y="94.465866" xlink:href="#glyph-0-10"/>
<use x="189.1631" y="94.465866" xlink:href="#m"/>
<use x="194.16666" y="94.465866" xlink:href="#d"/>
<use x="199.17023" y="94.465866" xlink:href="#h"/>
<use x="203.66859" y="94.465866" xlink:href="#m"/>
</g>
<g>
<use x="144.17056" y="104.96207" xlink:href="#e"/>
<use x="149.17413" y="104.96207" xlink:href="#l"/>
<use x="151.67371" y="104.96207" xlink:href="#glyph-0-10"/>
<use x="154.17329" y="104.96207" xlink:href="#d"/>
<use x="159.17686" y="104.96207" xlink:href="#s"/>
<use x="164.18042" y="104.96207" xlink:href="#a"/>
<use x="169.18399" y="104.96207" xlink:href="#g"/>
<use x="172.17998" y="104.96207" xlink:href="#k"/>
<use x="177.18353" y="104.96207" xlink:href="#d"/>
<use x="182.1871" y="104.96207" xlink:href="#f"/>
<use x="187.19066" y="104.96207" xlink:href="#i"/>
<use x="192.19423" y="104.96207" xlink:href="#q"/>
</g>
<g>
<use x="128.91826" y="116.20801" xlink:href="#s"/>
<use x="133.92183" y="116.20801" xlink:href="#a"/>
<use x="138.92538" y="116.20801" xlink:href="#f"/>
<use x="143.92896" y="116.20801" xlink:href="#i"/>
<use x="148.93251" y="116.20801" xlink:href="#a"/>
<use x="153.93608" y="116.20801" xlink:href="#c"/>
</g>
<g>
<use x="156.43567" y="116.20801" xlink:href="#q"/>
<use x="158.93524" y="116.20801" xlink:href="#h"/>
<use x="163.43362" y="116.20801" xlink:href="#j"/>
<use x="165.93321" y="116.20801" xlink:href="#d"/>
<use x="170.93677" y="116.20801" xlink:href="#j"/>
<use x="173.43636" y="116.20801" xlink:href="#a"/>
<use x="178.43991" y="116.20801" xlink:href="#q"/>
<use x="180.9395" y="116.20801" xlink:href="#v"/>
<use x="186.94026" y="116.20801" xlink:href="#d"/>
<use x="191.94383" y="116.20801" xlink:href="#i"/>
<use x="196.94739" y="116.20801" xlink:href="#m"/>
<use x="201.95096" y="116.20801" xlink:href="#d"/>
<use x="206.95451" y="116.20801" xlink:href="#c"/>
</g>
</svg>
